<svg xmlns="http://www.w3.org/2000/svg" xml:space="preserve" width="128" height="128" viewBox="0 0 24 24"><path d="M22 14.355c0-.742-.564-1.346-1.26-1.346H10.676c-.696 0-1.26.604-1.26 1.346s.563 1.346 1.26 1.346H20.74c.696.001 1.26-.603 1.26-1.346z"/><path d="m3.482 18.187 4.313 4.361c.973.979 2.318 1.452 3.803 1.452 1.485 0 2.83-.512 3.805-1.494l2.588-2.637c.51-.514.492-1.365-.039-1.9-.531-.535-1.375-.553-1.884-.039l-2.676 2.607c-.462.467-1.102.662-1.809.662s-1.346-.195-1.81-.662l-4.298-4.363c-.463-.467-.696-1.15-.696-1.863 0-.713.233-1.357.696-1.824l4.285-4.38c.463-.467 1.116-.645 1.822-.645s1.346.195 1.809.662l2.676 2.606c.51.515 1.354.497 1.885-.038.531-.536.549-1.387.039-1.901l-2.588-2.636a4.994 4.994 0 0 0-2.392-1.33l-.034-.007 2.447-2.503c.512-.514.494-1.366-.037-1.901-.531-.535-1.376-.552-1.887-.038l-10.018 10.1C2.509 11.458 2 12.813 2 14.311c0 1.498.509 2.896 1.482 3.876z"/></svg>