<svg xmlns="http://www.w3.org/2000/svg" xml:space="preserve" width="128" height="128" viewBox="0 0 24 24"><path d="M21 18a2.98 2.98 0 0 0-2.182.955l-8.481-3.715c.097-.4.163-.811.163-1.24 0-.769-.175-1.494-.473-2.152l7.32-4.877A3.97 3.97 0 0 0 20 8c2.206 0 4-1.794 4-4s-1.794-4-4-4-4 1.794-4 4c0 .46.094.895.237 1.306L8.87 10.215A5.224 5.224 0 0 0 5.25 8.75C2.355 8.75 0 11.105 0 14s2.355 5.25 5.25 5.25c1.752 0 3.296-.871 4.25-2.193l8.521 3.733c-.005.07-.021.138-.021.21 0 1.654 1.346 3 3 3s3-1.346 3-3-1.346-3-3-3z"/></svg>