<svg xmlns="http://www.w3.org/2000/svg" width="128" height="128" viewBox="0 0 24 24"><path d="M23.912 17.761c-.165-.947-.976-1.702-1.973-1.835l-5.529-.74c-1.003-.137-1.997.396-2.412 1.29a5.115 5.115 0 0 0-.267.709c-1.549-.646-2.939-1.579-4.139-2.778s-2.132-2.589-2.778-4.138c.245-.073.481-.162.709-.269.894-.416 1.423-1.407 1.289-2.411l-.74-5.528C7.939 1.064 7.185.252 6.22.085A5.575 5.575 0 0 0 5.298 0 5.291 5.291 0 0 0 .817 2.504C-.209 4.176-.066 6.316.172 7.993c.541 3.798 2.492 7.617 5.354 10.479a18.662 18.662 0 0 0 7.602 4.609c1.449.453 3.263.925 5.009.925 1.307 0 2.576-.265 3.625-1A5.264 5.264 0 0 0 24 18.7c0-.279-.027-.572-.088-.939z"/></svg>